<svg xmlns="http://www.w3.org/2000/svg" fill="none" viewBox="0 0 128 128">
  <rect width="128" height="128" rx="28" fill="#f2e0e6" />
  <svg x="18" y="10" width="92" height="108" viewBox="0 0 316 456" preserveAspectRatio="xMidYMid meet">
    <g transform="translate(0,456) scale(0.1,-0.1)">
      <path fill="#1a0812" d="M2241 4244 c-79 -8 -275 -30 -435 -49 -160 -20 -338 -41 -396 -47
l-105 -11 -70 31 c-114 49 -181 65 -249 59 -120 -12 -229 -65 -276 -134 -19
-28 -25 -50 -26 -95 l-1 -59 -49 -33 c-58 -39 -102 -87 -139 -151 -23 -38 -31
-44 -49 -39 -38 13 -140 7 -181 -10 -50 -21 -93 -61 -111 -103 -16 -38 -18
-103 -4 -154 13 -47 81 -124 134 -151 49 -25 160 -36 207 -19 l32 11 51 -54
c63 -67 113 -99 195 -126 47 -16 85 -21 143 -19 43 1 81 0 84 -3 11 -12 -29
-168 -62 -235 -52 -109 -117 -161 -320 -262 -195 -97 -244 -139 -270 -227 -13
-45 -13 -64 -4 -111 12 -58 62 -168 103 -227 25 -36 97 -126 218 -277 111
-137 184 -245 224 -333 66 -143 70 -241 16 -350 -17 -34 -70 -110 -118 -171
-48 -60 -109 -141 -136 -180 l-48 -70 717 -3 c395 -1 719 -1 721 1 2 2 -3 35
-11 73 -23 112 -28 205 -15 284 6 41 36 140 65 220 30 80 63 179 74 220 27
108 42 243 34 320 l-6 67 54 26 c103 51 170 139 171 228 1 62 -28 100 -131
172 -136 95 -175 163 -153 269 18 84 69 182 195 372 142 214 221 357 280 506
53 136 85 244 122 412 20 91 27 153 28 240 1 104 -1 119 -20 145 -34 46 -93
62 -224 61 -63 0 -180 -7 -259 -14z m-293 -279 c208 -16 354 -34 364 -44 13
-11 -61 -212 -127 -346 -103 -209 -163 -292 -316 -435 -74 -69 -165 -160 -203
-202 -39 -43 -73 -78 -77 -78 -17 0 -39 85 -39 153 0 84 12 132 43 177 30 45
78 68 192 91 54 10 109 25 124 32 32 15 39 56 15 91 -14 23 -15 30 -3 57 11
28 10 33 -5 44 -15 11 -15 16 -5 34 12 17 10 23 -10 45 -24 26 -23 35 12 73
11 12 17 28 14 36 -3 8 -29 23 -58 32 -99 33 -133 62 -157 132 -6 18 -25 53
-42 78 l-31 45 63 0 c35 0 145 -7 246 -15z" />
    </g>
  </svg>
</svg>
